<?xml version="1.0" standalone="yes"?>
<svg xmlns="http://www.w3.org/2000/svg" width="512" height="512">
<path style="fill:#ffffff; stroke:none;" d="M0 0L0 234L1 234C1.06194 140.466 76.7942 51.7514 160 18.2006C182.939 8.95102 209.066 1.01645 234 1L212 0L165 0L0 0z"/>
<path style="fill:#010101; stroke:none;" d="M234 0.424377C189.663 6.24857 148.271 18.0651 111 43.885C82.5685 63.5815 57.8491 88.7497 39.3194 118C-46.4992 253.47 15.2879 442.908 168 497.308C208.466 511.723 252.499 515.74 295 509.715C330.089 504.74 364.131 491.602 394 472.681C418.629 457.079 440.656 436.99 458.576 414C544.329 303.981 524.148 139.279 414 53.4244C388.074 33.2164 358.571 18.3551 327 9.29089C297.919 0.941711 264.215 -3.54474 234 0.424377z"/>
<path style="fill:#ffffff; stroke:none;" d="M278 0L278 1C302.934 1.01645 329.061 8.95102 352 18.2006C435.206 51.7513 510.938 140.466 511 234L512 234L512 0L278 0M84 402L85 402C100.113 362.529 117.562 328.911 153 303.428C165.965 294.105 180.072 288.425 194 281L194 280C180.316 269.856 168.374 257.102 160.323 242C120.161 166.656 183.195 78.4134 266 84.0895C278.194 84.9254 289.951 88.6753 301 93.6952C376.539 128.016 384.184 232.415 318 280L318 281C356.461 298.991 388.078 322.424 409.573 360C417.278 373.47 420.952 387.946 427 402C443.59 387.502 454.805 363.871 463.424 344C500.542 258.431 478.086 156.187 411 92.0394C307.204 -7.21143 131.176 19.5711 60.2809 144C38.2791 182.615 30.9972 223.124 31 267C31.0032 317.493 54.803 362.613 84 402M244 115.439C233.32 117.107 223.059 120.981 214 126.865C205.478 132.4 198.055 139.585 192.359 148C154.326 204.183 203.741 278.805 270 267.715C279.967 266.046 289.517 261.966 298 256.564C306.407 251.21 313.57 244.155 319.279 236C357.418 181.518 309.889 105.148 244 115.439M0 278L0 512L234 512L234 511C145.454 510.941 58.8935 441.509 23.3086 364C15.2642 346.478 8.85946 327.91 5.00386 309C3.05395 299.437 3.69645 286.806 0 278M511 278C510.984 302.934 503.049 329.061 493.799 352C460.249 435.206 371.534 510.938 278 511L278 512L512 512L512 347L512 300L511 278M244 301.424C193.136 308.185 149.219 335.069 125.753 382C120.324 392.859 116.604 404.187 113.887 416C113.024 419.754 110.913 425.962 113.032 429.536C119.719 440.815 139.838 449.271 151 455.309C193.931 478.53 242.998 485.184 291 478.718C320.906 474.689 350.719 462.943 376 446.692C382.53 442.494 396.365 436.214 399.382 428.7C401.004 424.661 398.615 418.027 397.626 414C394.619 401.756 390.423 390.261 384.752 379C359.782 329.41 300.258 293.947 244 301.424z"/>
</svg>
